<svg width="4" height="7" viewBox="0 0 4 7" fill="none" xmlns="http://www.w3.org/2000/svg">
<path id="icon" d="M0.195506 0.36201C0.455856 0.101661 0.877865 0.101661 1.13821 0.36201L3.80488 3.02868L3.84785 3.07555L3.84915 3.0775L3.85045 3.07881C3.88151 3.11686 3.90719 3.15804 3.92858 3.20055C3.9348 3.21291 3.94141 3.22502 3.94681 3.23766C3.95842 3.26484 3.96762 3.29279 3.97545 3.32099C3.98884 3.36921 3.99719 3.41849 3.99954 3.46813V3.53193C3.99705 3.58429 3.98761 3.63617 3.97285 3.68688C3.94851 3.77044 3.90811 3.85061 3.85045 3.92125L3.80488 3.97139L1.13821 6.63805C0.877882 6.89838 0.45586 6.89835 0.195506 6.63805C-0.0648432 6.3777 -0.0648432 5.95569 0.195506 5.69534L2.39082 3.50003L0.195506 1.30472C-0.0648432 1.04437 -0.0648432 0.62236 0.195506 0.36201Z" fill="#4C4C4C"/>
</svg>
