<svg width="16" height="16" viewBox="0 0 16 16" fill="none" xmlns="http://www.w3.org/2000/svg">
<g clip-path="url(#clip0_62_107)">
<path d="M7.99996 6.84723L10.3045 4.54269L11.4572 5.69542L9.15269 7.99996L11.4572 10.3045L10.3045 11.4572L7.99996 9.15269L5.69542 11.4572L4.54269 10.3045L6.84723 7.99996L4.54269 5.69542L5.69542 4.54269L7.99996 6.84723Z" fill="#707070"/>
<path fill-rule="evenodd" clip-rule="evenodd" d="M2.81451 2.81451C5.67835 -0.0493354 10.3216 -0.0493354 13.1854 2.81451C16.0493 5.67835 16.0493 10.3216 13.1854 13.1854C10.3216 16.0493 5.67835 16.0493 2.81451 13.1854C-0.0493354 10.3216 -0.0493354 5.67835 2.81451 2.81451ZM3.67906 3.67906C1.29252 6.0656 1.29252 9.93432 3.67906 12.3209C6.0656 14.7074 9.93432 14.7074 12.3209 12.3209C14.7074 9.93432 14.7074 6.0656 12.3209 3.67906C9.93432 1.29252 6.0656 1.29252 3.67906 3.67906Z" fill="#707070"/>
</g>
<defs>
<clipPath id="clip0_62_107">
<rect width="16" height="16" fill="white"/>
</clipPath>
</defs>
</svg>
